<svg xmlns="http://www.w3.org/2000/svg" viewBox="0 0 1019 949" width="1019" height="949" fill="none">
    <path stroke="#fff" stroke-opacity=".20" stroke-width=".612" d="m-22.627 288.098 462.658 51.254M-22.627 288.098l491.304 141.335M-22.627 288.098l519.95 231.416M-22.627 288.098 525.97 609.596M6.02 378.179l434.011-38.827M6.02 378.179l462.657 51.254M6.02 378.179l491.303 141.335M6.02 378.179l519.949 231.416M34.666 468.26 440.03 339.352M34.666 468.26l434.011-38.827M34.666 468.26l462.657 51.254M34.666 468.26l491.303 141.336M63.312 558.341 440.03 339.352M63.312 558.341l405.365-128.908M63.312 558.341l434.011-38.827M63.312 558.341l462.657 51.254M91.958 648.422l348.073-309.07M91.958 648.422l376.719-218.989M91.958 648.422l405.365-128.908M91.958 648.422l434.011-38.827M120.604 738.503l319.427-399.151M120.604 738.503l348.073-309.07M120.604 738.503l376.719-218.989M120.604 738.503l405.365-128.908M149.25 828.585l290.781-489.233M149.25 828.584l319.427-399.151M149.25 828.585l348.073-309.071M149.25 828.584l376.719-218.989M177.897 918.666l262.134-579.314M177.896 918.666l290.781-489.233M177.897 918.666l319.426-399.152M177.896 918.666l348.073-309.071M440.031 339.352l448.334 6.214M468.677 429.433l419.688-83.867M497.323 519.514l391.042-173.948M525.969 609.596l362.396-264.03"/>
    <path stroke="#fff" stroke-opacity=".10" stroke-width="1.224" d="M-15.466 310.618c12.438-3.955 19.314-17.244 15.36-29.682-3.956-12.438-17.245-19.314-29.683-15.359-12.437 3.955-19.313 17.244-15.358 29.682 3.955 12.438 17.244 19.314 29.681 15.359ZM13.18 400.699c12.438-3.955 19.315-17.244 15.36-29.682-3.956-12.437-17.245-19.314-29.682-15.358-12.438 3.955-19.314 17.244-15.36 29.681 3.956 12.438 17.245 19.314 29.683 15.359ZM41.827 490.78c12.438-3.955 19.314-17.244 15.359-29.682-3.956-12.437-17.245-19.314-29.682-15.358-12.438 3.955-19.314 17.244-15.359 29.681 3.955 12.438 17.244 19.314 29.682 15.359ZM70.473 580.861c12.438-3.955 19.314-17.244 15.359-29.681-3.955-12.438-17.244-19.314-29.682-15.359-12.438 3.955-19.314 17.244-15.359 29.682 3.956 12.437 17.245 19.314 29.682 15.358ZM99.12 670.943c12.437-3.956 19.313-17.245 15.358-29.682-3.955-12.438-17.244-19.314-29.682-15.359-12.437 3.955-19.314 17.244-15.359 29.682 3.956 12.437 17.245 19.314 29.682 15.359ZM127.766 761.024c12.437-3.956 19.314-17.245 15.358-29.682-3.955-12.438-17.244-19.314-29.682-15.359-12.437 3.955-19.313 17.244-15.358 29.682 3.955 12.438 17.244 19.314 29.682 15.359ZM156.412 851.105c12.437-3.955 19.314-17.244 15.358-29.682-3.955-12.438-17.244-19.314-29.681-15.359-12.438 3.955-19.314 17.245-15.359 29.682 3.955 12.438 17.244 19.314 29.682 15.359ZM185.058 941.186c12.438-3.955 19.314-17.244 15.359-29.682-3.956-12.437-17.245-19.314-29.682-15.359-12.438 3.956-19.314 17.245-15.359 29.682 3.955 12.438 17.244 19.314 29.682 15.359ZM447.192 361.872c12.438-3.955 19.314-17.244 15.359-29.682-3.955-12.437-17.244-19.314-29.682-15.358-12.437 3.955-19.314 17.244-15.359 29.681 3.956 12.438 17.245 19.314 29.682 15.359ZM475.839 451.954c12.437-3.956 19.314-17.245 15.358-29.682-3.955-12.438-17.244-19.314-29.682-15.359-12.437 3.955-19.313 17.244-15.358 29.682 3.955 12.437 17.244 19.314 29.682 15.359ZM504.485 542.035c12.437-3.956 19.314-17.245 15.358-29.682-3.955-12.438-17.244-19.314-29.681-15.359-12.438 3.955-19.314 17.244-15.359 29.682 3.955 12.437 17.244 19.314 29.682 15.359ZM533.131 632.116c12.438-3.955 19.314-17.244 15.359-29.682-3.956-12.438-17.245-19.314-29.682-15.359-12.438 3.955-19.314 17.244-15.359 29.682 3.955 12.438 17.244 19.314 29.682 15.359ZM895.527 368.086c12.437-3.955 19.314-17.244 15.359-29.682-3.956-12.437-17.245-19.314-29.682-15.359-12.438 3.956-19.314 17.245-15.359 29.682 3.955 12.438 17.244 19.314 29.682 15.359Z"/>
</svg>