<svg xmlns="http://www.w3.org/2000/svg" width="833" height="128" fill="none"><path fill="#000" d="M173.862 96c-2.204 0-4.079-.329-5.626-.986a7.155 7.155 0 0 1-3.422-3.248c-.735-1.508-1.102-3.48-1.102-5.916V53.08h8.584v31.378c0 .928.155 1.682.464 2.262.348.58.812.986 1.392 1.218.58.193 1.237.29 1.972.29h13.572V96h-15.834Zm33.591.29c-3.441 0-6.187-.445-8.236-1.334-2.049-.928-3.538-2.552-4.466-4.872-.889-2.32-1.334-5.53-1.334-9.628 0-4.215.425-7.482 1.276-9.802.851-2.32 2.281-3.944 4.292-4.872 2.011-.928 4.737-1.392 8.178-1.392 3.093 0 5.568.31 7.424.928 1.856.619 3.19 1.701 4.002 3.248.851 1.547 1.276 3.731 1.276 6.554 0 2.088-.425 3.75-1.276 4.988-.812 1.199-1.972 2.069-3.48 2.61-1.508.503-3.287.754-5.336.754h-7.83c.077 1.585.309 2.861.696 3.828.425.928 1.179 1.605 2.262 2.03 1.121.387 2.726.58 4.814.58h9.106v5.046c-1.508.31-3.171.619-4.988.928-1.779.27-3.905.406-6.38.406Zm-5.626-17.922h7.076c1.16 0 2.011-.232 2.552-.696.541-.464.812-1.295.812-2.494 0-1.121-.174-2.01-.522-2.668a2.856 2.856 0 0 0-1.624-1.45c-.735-.31-1.721-.464-2.958-.464-1.315 0-2.359.232-3.132.696-.773.425-1.334 1.199-1.682 2.32-.348 1.121-.522 2.707-.522 4.756ZM227.643 96V71.756h-4.408v-5.51l4.408-1.392v-2.088c0-2.63.348-4.775 1.044-6.438.735-1.701 1.856-2.939 3.364-3.712 1.508-.812 3.5-1.218 5.974-1.218 1.354 0 2.572.097 3.654.29 1.122.193 2.05.387 2.784.58v6.148h-4.756c-.889 0-1.585.135-2.088.406-.502.27-.85.696-1.044 1.276-.193.541-.29 1.276-.29 2.204v2.552h7.888v6.902h-7.888V96h-8.642Zm33.732.29c-3.441 0-6.187-.445-8.236-1.334-2.049-.928-3.538-2.552-4.466-4.872-.889-2.32-1.334-5.53-1.334-9.628 0-4.215.425-7.482 1.276-9.802.851-2.32 2.281-3.944 4.292-4.872 2.011-.928 4.737-1.392 8.178-1.392 3.093 0 5.568.31 7.424.928 1.856.619 3.19 1.701 4.002 3.248.851 1.547 1.276 3.731 1.276 6.554 0 2.088-.425 3.75-1.276 4.988-.812 1.199-1.972 2.069-3.48 2.61-1.508.503-3.287.754-5.336.754h-7.83c.077 1.585.309 2.861.696 3.828.425.928 1.179 1.605 2.262 2.03 1.121.387 2.726.58 4.814.58h9.106v5.046c-1.508.31-3.171.619-4.988.928-1.779.27-3.905.406-6.38.406Zm-5.626-17.922h7.076c1.16 0 2.011-.232 2.552-.696.541-.464.812-1.295.812-2.494 0-1.121-.174-2.01-.522-2.668a2.856 2.856 0 0 0-1.624-1.45c-.735-.31-1.721-.464-2.958-.464-1.315 0-2.359.232-3.132.696-.773.425-1.334 1.199-1.682 2.32-.348 1.121-.522 2.707-.522 4.756Zm41.302 17.98c-1.353 0-2.571-.155-3.654-.464a13.579 13.579 0 0 1-2.958-1.218 26.853 26.853 0 0 1-2.436-1.624L286.611 96h-7.192V51.746h8.584V67c1.238-.657 2.63-1.257 4.176-1.798 1.547-.541 3.036-.812 4.466-.812 2.668 0 4.795.56 6.38 1.682 1.624 1.121 2.804 2.88 3.538 5.278.735 2.359 1.102 5.49 1.102 9.396 0 3.48-.386 6.38-1.16 8.7-.734 2.32-1.894 4.06-3.48 5.22-1.546 1.121-3.538 1.682-5.974 1.682Zm-3.19-7.018c1.006 0 1.895-.251 2.668-.754.812-.541 1.431-1.47 1.856-2.784.464-1.315.696-3.132.696-5.452 0-2.707-.251-4.679-.754-5.916-.464-1.276-1.102-2.107-1.914-2.494a5.207 5.207 0 0 0-2.552-.638c-1.16 0-2.242.193-3.248.58-.966.348-1.836.735-2.61 1.16v14.79c.735.387 1.566.735 2.494 1.044.967.31 2.088.464 3.364.464ZM320.044 96l-10.44-31.146h8.874l6.728 23.2 6.902-23.2h8.758L329.962 96h-9.918Zm24.908 0V64.854h6.612l1.972 4.756a18.712 18.712 0 0 1 3.77-3.654c1.431-1.005 3.113-1.508 5.046-1.508.426 0 .851.02 1.276.058.464.039.89.116 1.276.232v8.816a25.326 25.326 0 0 0-1.856-.174 14.496 14.496 0 0 0-1.798-.116c-1.121 0-2.146.135-3.074.406-.889.232-1.72.6-2.494 1.102-.734.464-1.45 1.083-2.146 1.856V96h-8.584Zm37.634.29c-3.441 0-6.187-.445-8.236-1.334-2.049-.928-3.538-2.552-4.466-4.872-.889-2.32-1.334-5.53-1.334-9.628 0-4.215.425-7.482 1.276-9.802.851-2.32 2.281-3.944 4.292-4.872 2.011-.928 4.737-1.392 8.178-1.392 3.093 0 5.568.31 7.424.928 1.856.619 3.19 1.701 4.002 3.248.851 1.547 1.276 3.731 1.276 6.554 0 2.088-.425 3.75-1.276 4.988-.812 1.199-1.972 2.069-3.48 2.61-1.508.503-3.287.754-5.336.754h-7.83c.077 1.585.309 2.861.696 3.828.425.928 1.179 1.605 2.262 2.03 1.121.387 2.726.58 4.814.58h9.106v5.046c-1.508.31-3.171.619-4.988.928-1.779.27-3.905.406-6.38.406Zm-5.626-17.922h7.076c1.16 0 2.011-.232 2.552-.696.541-.464.812-1.295.812-2.494 0-1.121-.174-2.01-.522-2.668a2.856 2.856 0 0 0-1.624-1.45c-.735-.31-1.721-.464-2.958-.464-1.315 0-2.359.232-3.132.696-.773.425-1.334 1.199-1.682 2.32-.348 1.121-.522 2.707-.522 4.756Zm51.963 17.98c-1.121 0-2.281-.039-3.48-.116a60.013 60.013 0 0 1-3.596-.232c-1.198-.155-2.339-.31-3.422-.464a38.914 38.914 0 0 1-2.958-.638v-6.786a84.83 84.83 0 0 0 3.944.29c1.47.077 2.997.135 4.582.174 1.586.039 3.094.058 4.524.058 1.47 0 2.726-.116 3.77-.348 1.083-.27 1.914-.715 2.494-1.334.58-.657.87-1.547.87-2.668v-1.566c0-1.276-.386-2.243-1.16-2.9-.734-.696-1.798-1.044-3.19-1.044h-3.654c-4.098 0-7.25-.89-9.454-2.668-2.165-1.817-3.248-4.891-3.248-9.222v-2.088c0-4.176 1.199-7.23 3.596-9.164 2.398-1.933 5.82-2.9 10.266-2.9 1.586 0 3.152.077 4.698.232 1.586.155 3.094.348 4.524.58 1.47.193 2.726.406 3.77.638v6.786c-1.778-.116-3.77-.232-5.974-.348a113.248 113.248 0 0 0-6.032-.174c-1.314 0-2.494.135-3.538.406-1.005.232-1.778.696-2.32 1.392-.541.696-.812 1.682-.812 2.958v1.16c0 1.508.426 2.59 1.276 3.248.851.657 2.108.986 3.77.986h4.234c2.591 0 4.718.483 6.38 1.45 1.702.928 2.958 2.223 3.77 3.886.851 1.663 1.276 3.557 1.276 5.684v2.436c0 3.364-.638 5.935-1.914 7.714-1.237 1.779-2.977 2.997-5.22 3.654-2.204.619-4.794.928-7.772.928Zm27.427 0c-2.359 0-4.273-.696-5.742-2.088-1.47-1.392-2.204-3.325-2.204-5.8v-2.784c0-2.359.831-4.292 2.494-5.8 1.662-1.547 4.253-2.32 7.772-2.32h7.946V75.41c0-.967-.174-1.76-.522-2.378-.348-.657-1.006-1.121-1.972-1.392-.928-.31-2.359-.464-4.292-.464h-9.338v-4.988c1.508-.464 3.248-.87 5.22-1.218 2.01-.348 4.427-.522 7.25-.522 2.59 0 4.794.31 6.612.928 1.856.619 3.248 1.682 4.176 3.19.966 1.508 1.45 3.596 1.45 6.264V96h-6.786l-1.392-3.306c-.271.31-.735.657-1.392 1.044-.658.387-1.47.793-2.436 1.218-.928.387-1.992.715-3.19.986-1.16.27-2.378.406-3.654.406Zm4.35-5.974a7.82 7.82 0 0 0 1.276-.116l1.508-.348c.541-.155 1.024-.29 1.45-.406.464-.155.831-.29 1.102-.406a8.49 8.49 0 0 0 .58-.232v-7.25l-5.22.348c-1.508.116-2.63.503-3.364 1.16-.696.657-1.044 1.547-1.044 2.668v1.276c0 .773.154 1.411.464 1.914.348.503.792.87 1.334 1.102.58.193 1.218.29 1.914.29ZM481.626 96V64.854h6.612l1.972 4.756a18.712 18.712 0 0 1 3.77-3.654c1.431-1.005 3.113-1.508 5.046-1.508.426 0 .851.02 1.276.058.464.039.89.116 1.276.232v8.816a25.326 25.326 0 0 0-1.856-.174 14.496 14.496 0 0 0-1.798-.116c-1.121 0-2.146.135-3.074.406-.889.232-1.72.6-2.494 1.102-.734.464-1.45 1.083-2.146 1.856V96h-8.584Zm24.526 0V64.854h6.612l1.972 4.756a18.686 18.686 0 0 1 3.77-3.654c1.43-1.005 3.112-1.508 5.046-1.508.425 0 .85.02 1.276.058a6.25 6.25 0 0 1 1.276.232v8.816a25.378 25.378 0 0 0-1.856-.174 14.509 14.509 0 0 0-1.798-.116c-1.122 0-2.146.135-3.074.406-.89.232-1.721.6-2.494 1.102-.735.464-1.45 1.083-2.146 1.856V96h-8.584Zm33.341.348c-2.784 0-4.969-.812-6.554-2.436-1.585-1.663-2.378-4.002-2.378-7.018v-22.04h8.584v19.488c0 1.74.406 2.92 1.218 3.538.851.58 1.953.87 3.306.87 1.083 0 2.185-.193 3.306-.58 1.16-.425 2.185-.986 3.074-1.682V64.854h8.642V96h-7.134l-1.508-3.19c-1.392.928-2.997 1.76-4.814 2.494a15.914 15.914 0 0 1-5.742 1.044Zm37.51-.348c-2.397 0-4.35-.348-5.858-1.044-1.469-.696-2.532-1.856-3.19-3.48-.657-1.624-.947-3.809-.87-6.554l.29-13.166h-4.872v-5.51l5.162-1.392 1.16-8.7h6.786v8.7h7.308v6.902h-7.308v13.108c0 .85.078 1.547.232 2.088.155.541.368.986.638 1.334.31.31.658.541 1.044.696.387.155.774.251 1.16.29l3.944.348V96h-5.626Zm12.045-28.594c-.541 0-.947-.02-1.218-.058a32.666 32.666 0 0 0-.754-.116v-3.19c.735 0 1.18-.193 1.334-.58.194-.387.29-.735.29-1.044v-1.682h-.58c-.348 0-.657-.097-.928-.29-.232-.232-.348-.56-.348-.986v-5.858c0-.928.426-1.392 1.276-1.392h5.278c.464 0 .774.135.928.406.155.27.232.6.232.986v8.874c0 1.392-.309 2.436-.928 3.132a4.512 4.512 0 0 1-2.204 1.45c-.85.232-1.643.348-2.378.348Zm21.814 28.942c-.967 0-2.011-.039-3.132-.116a49.162 49.162 0 0 1-3.364-.232 57.09 57.09 0 0 1-3.132-.406c-.967-.193-1.779-.406-2.436-.638V89.91h13.804c.812 0 1.469-.058 1.972-.174.541-.155.928-.406 1.16-.754.271-.387.406-.928.406-1.624v-.986c0-.773-.251-1.373-.754-1.798-.503-.425-1.431-.638-2.784-.638h-4.872c-1.779 0-3.383-.27-4.814-.812-1.431-.541-2.571-1.43-3.422-2.668-.812-1.237-1.218-2.9-1.218-4.988V73.67c0-1.972.387-3.635 1.16-4.988.773-1.353 2.069-2.378 3.886-3.074 1.817-.696 4.311-1.044 7.482-1.044 1.276 0 2.629.077 4.06.232a41.2 41.2 0 0 1 4.118.522c1.315.193 2.359.425 3.132.696v5.046h-13.05c-1.121 0-1.972.193-2.552.58-.58.348-.87 1.025-.87 2.03v.928c0 .696.135 1.218.406 1.566.271.31.677.541 1.218.696.58.116 1.295.174 2.146.174h4.988c3.171 0 5.471.735 6.902 2.204 1.469 1.43 2.204 3.422 2.204 5.974v2.784c0 2.088-.503 3.75-1.508 4.988-.967 1.199-2.397 2.069-4.292 2.61-1.856.503-4.137.754-6.844.754ZM641.468 96l13.456-42.92h10.846L679.226 96h-8.932l-2.726-8.99h-14.616L650.284 96h-8.816Zm13.514-16.704h10.556l-5.278-18.85-5.278 18.85ZM683.9 96V53.08h8.584V96H683.9Zm30.982 0V53.08h16.878c4.253 0 7.347.986 9.28 2.958 1.972 1.933 2.958 4.698 2.958 8.294 0 1.701-.251 3.21-.754 4.524-.464 1.276-1.141 2.34-2.03 3.19-.889.812-1.953 1.373-3.19 1.682.928.232 1.817.6 2.668 1.102a8.426 8.426 0 0 1 2.378 2.03c.735.85 1.295 1.895 1.682 3.132.425 1.199.638 2.59.638 4.176 0 2.9-.503 5.22-1.508 6.96-.967 1.74-2.417 2.997-4.35 3.77-1.895.735-4.234 1.102-7.018 1.102h-17.632Zm8.584-7.714h8.816c1.005 0 1.875-.193 2.61-.58.735-.387 1.295-.986 1.682-1.798.425-.812.638-1.895.638-3.248 0-1.121-.213-2.069-.638-2.842a4.577 4.577 0 0 0-1.74-1.798c-.735-.425-1.585-.638-2.552-.638h-8.816v10.904Zm0-17.516h8.352c1.237 0 2.204-.445 2.9-1.334.735-.928 1.102-2.127 1.102-3.596.039-1.895-.348-3.21-1.16-3.944-.812-.735-1.798-1.102-2.958-1.102h-8.236v9.976Zm37.117 25.346c-2.204 0-4.04-.348-5.51-1.044-1.43-.735-2.494-1.837-3.19-3.306-.696-1.508-1.044-3.441-1.044-5.8v-34.22h8.584V84.69c0 1.16.116 2.088.348 2.784.232.657.58 1.14 1.044 1.45.503.31 1.122.522 1.856.638l2.378.348v6.206h-4.466Zm21.778.174c-2.552 0-4.737-.251-6.554-.754-1.817-.541-3.306-1.43-4.466-2.668-1.121-1.237-1.953-2.88-2.494-4.93-.503-2.05-.754-4.582-.754-7.598 0-3.17.251-5.78.754-7.83.541-2.088 1.373-3.712 2.494-4.872 1.16-1.199 2.649-2.03 4.466-2.494 1.856-.503 4.041-.754 6.554-.754 2.591 0 4.795.251 6.612.754 1.817.503 3.287 1.353 4.408 2.552 1.16 1.16 1.991 2.784 2.494 4.872.541 2.05.812 4.64.812 7.772 0 3.093-.251 5.684-.754 7.772-.503 2.05-1.315 3.673-2.436 4.872-1.121 1.199-2.61 2.05-4.466 2.552-1.817.503-4.041.754-6.67.754Zm0-6.844c1.044 0 1.914-.097 2.61-.29.735-.193 1.315-.58 1.74-1.16.464-.619.812-1.547 1.044-2.784.232-1.237.348-2.861.348-4.872 0-2.05-.116-3.673-.348-4.872-.232-1.237-.58-2.146-1.044-2.726a2.956 2.956 0 0 0-1.74-1.218c-.696-.193-1.566-.29-2.61-.29-1.005 0-1.875.097-2.61.29-.696.193-1.276.6-1.74 1.218-.464.58-.812 1.489-1.044 2.726-.193 1.199-.29 2.823-.29 4.872 0 2.01.097 3.635.29 4.872.232 1.237.58 2.165 1.044 2.784a3.32 3.32 0 0 0 1.74 1.16c.735.193 1.605.29 2.61.29Zm28.083 20.938c-1.972 0-3.731-.29-5.278-.87-1.508-.58-2.706-1.431-3.596-2.552-.889-1.083-1.334-2.436-1.334-4.06v-.928c0-1.663.464-3.093 1.392-4.292.967-1.16 2.204-2.05 3.712-2.668a12.56 12.56 0 0 1 4.814-.928l2.552 2.668c-.85 0-1.604.135-2.262.406-.657.27-1.179.657-1.566 1.16-.348.541-.522 1.199-.522 1.972v.638c0 1.121.387 1.972 1.16 2.552.774.58 1.876.87 3.306.87h5.916c1.431 0 2.572-.29 3.422-.87.89-.541 1.334-1.373 1.334-2.494v-.928c0-.696-.174-1.295-.522-1.798-.309-.464-.792-.831-1.45-1.102-.618-.27-1.469-.406-2.552-.406h-6.902c-3.48 0-6.07-.638-7.772-1.914-1.662-1.315-2.494-2.92-2.494-4.814 0-1.585.445-2.9 1.334-3.944.928-1.083 2.204-1.798 3.828-2.146-1.237-.657-2.223-1.45-2.958-2.378-.734-.967-1.256-1.991-1.566-3.074a13.04 13.04 0 0 1-.464-3.48c0-2.281.464-4.176 1.392-5.684.967-1.508 2.398-2.63 4.292-3.364 1.934-.735 4.35-1.102 7.25-1.102h16.878v4.698l-4.756.87c.348.387.696.85 1.044 1.392.348.503.638 1.18.87 2.03.271.812.406 1.837.406 3.074 0 1.779-.386 3.383-1.16 4.814-.734 1.43-1.933 2.571-3.596 3.422-1.624.85-3.789 1.276-6.496 1.276h-5.51c-1.044 0-1.894.155-2.552.464-.657.31-.986.87-.986 1.682 0 .657.271 1.121.812 1.392.58.232 1.218.348 1.914.348h8.584c2.398 0 4.428.31 6.09.928 1.663.619 2.939 1.624 3.828 3.016.89 1.353 1.334 3.151 1.334 5.394v.87c0 3.055-.966 5.452-2.9 7.192-1.933 1.779-4.91 2.668-8.932 2.668h-9.338Zm3.364-30.392h3.306c1.199 0 2.108-.174 2.726-.522.658-.387 1.102-.89 1.334-1.508.271-.657.406-1.411.406-2.262 0-1.083-.174-1.953-.522-2.61-.309-.657-.773-1.121-1.392-1.392-.618-.27-1.392-.406-2.32-.406h-3.248c-1.469 0-2.571.329-3.306.986-.734.619-1.102 1.72-1.102 3.306 0 1.508.348 2.63 1.044 3.364.696.696 1.721 1.044 3.074 1.044Z"/><path fill="url(#a)" d="M53.904 95.947c-.896 0-1.648-.304-2.257-.912a3.263 3.263 0 0 1-.864-2.256c0-.896.288-1.632.864-2.208.609-.608 1.361-.912 2.258-.912.896 0 1.632.304 2.209.912.608.576.912 1.312.912 2.208 0 .864-.304 1.616-.912 2.256-.577.608-1.313.912-2.21.912Z"/><path fill="url(#b)" d="M72.803 95.947c-2.081 0-3.97-.512-5.667-1.536-1.697-1.056-3.042-2.48-4.034-4.272-.96-1.792-1.441-3.808-1.441-6.048s.48-4.256 1.44-6.048c.993-1.792 2.322-3.216 3.987-4.272 1.697-1.056 3.602-1.584 5.715-1.584 1.728 0 3.265.368 4.61 1.104a8.494 8.494 0 0 1 3.314 2.976c.832 1.248 1.296 2.704 1.392 4.368v6.864c-.096 1.632-.56 3.088-1.392 4.368-.8 1.28-1.89 2.288-3.266 3.024-1.345.704-2.897 1.056-4.658 1.056Zm.72-4.08c2.145 0 3.874-.72 5.187-2.16 1.312-1.472 1.969-3.344 1.969-5.616 0-1.568-.305-2.928-.913-4.08-.576-1.184-1.409-2.096-2.497-2.736-1.089-.672-2.353-1.008-3.794-1.008-1.44 0-2.721.336-3.842 1.008-1.089.672-1.953 1.6-2.593 2.784-.609 1.152-.913 2.48-.913 3.984 0 1.536.304 2.896.913 4.08a7.228 7.228 0 0 0 2.641 2.736c1.12.672 2.401 1.008 3.842 1.008Zm6.868 3.6v-6.144l.816-5.568-.816-5.52v-5.568h4.37v22.8h-4.37Z"/><path fill="url(#c)" d="M91.102 95.467v-22.8h4.322v22.8H91.1Zm2.16-27.36c-.8 0-1.456-.256-1.968-.768-.513-.544-.769-1.216-.769-2.016 0-.768.256-1.408.769-1.92.512-.544 1.168-.816 1.969-.816.8 0 1.456.272 1.969.816.512.512.768 1.152.768 1.92 0 .8-.256 1.472-.768 2.016-.513.512-1.169.768-1.97.768Z"/><path fill="url(#d)" d="M64.592 32h-2.716c-3.448 0-6.581 2.043-7.73 5.058L32 96h8.461l24.13-64Z"/><rect width="122" height="122" x="3" y="3" stroke="url(#e)" stroke-width="6" rx="29"/><defs><linearGradient id="a" x1="-.5" x2="128" y1=".5" y2="128" gradientUnits="userSpaceOnUse"><stop stop-color="#4000C1"/><stop offset="1" stop-color="#C600C9"/></linearGradient><linearGradient id="b" x1="-.5" x2="128" y1=".5" y2="128" gradientUnits="userSpaceOnUse"><stop stop-color="#4000C1"/><stop offset="1" stop-color="#C600C9"/></linearGradient><linearGradient id="c" x1="-.5" x2="128" y1=".5" y2="128" gradientUnits="userSpaceOnUse"><stop stop-color="#4000C1"/><stop offset="1" stop-color="#C600C9"/></linearGradient><linearGradient id="d" x1="0" x2="128" y1="0" y2="128" gradientUnits="userSpaceOnUse"><stop stop-color="#4000C1"/><stop offset="1" stop-color="#C600C9"/></linearGradient><linearGradient id="e" x1="64" x2="64" y1="0" y2="128" gradientUnits="userSpaceOnUse"><stop stop-color="#4000C1"/><stop offset="1" stop-color="#C600C9"/></linearGradient></defs></svg>