<svg xmlns="http://www.w3.org/2000/svg" fill="none" viewBox="0 0 24 13">
    <path d="m11.174 11.23-.442 1.261h.111c.142 0 .266-.09.313-.223l.365-1.039h-.347ZM20.519 10.95c.502 0 .69-.141.811-.261.279-.28.258-.786.258-1.13V7.805h-.297V9.56c0 .52-.004.725-.171.893a.627.627 0 0 1-.443.197c-.042.004-.12.004-.158.004-.039 0-.116 0-.16-.004a.597.597 0 0 1-.441-.197c-.168-.168-.172-.378-.172-.893V7.804h-.296V9.56c0 .343-.022.845.257 1.129.12.12.314.261.812.261ZM.39 5.915c-.06-.03-.094-.107-.094-.227V3.12H0v2.567c0 .116.017.214.047.292.073.176.258.266.55.266h1.189a.077.077 0 0 0 .077-.078V5.95H.601a.55.55 0 0 1-.21-.035ZM2.752 3.12a.564.564 0 0 0-.37.134c-.103.09-.154.236-.154.438v2.004c0 .236.064.395.193.472.06.035.12.06.176.07.056.008.103.016.137.016h.09l1.28-.064v-.232h-1.28a.565.565 0 0 1-.21-.034c-.06-.03-.094-.108-.094-.228v-.85l1.34-.03c.042 0 .072-.034.072-.077v-.163l-1.417-.034v-.846c0-.095.018-.163.056-.21.035-.043.103-.07.202-.07h1.322v-.235l-1.322-.06h-.021ZM5.246 3.12a.564.564 0 0 0-.37.134c-.103.09-.154.236-.154.438v2.55h.296V4.845l1.34-.03c.042 0 .072-.034.072-.077v-.163l-1.416-.034v-.846c0-.095.017-.163.056-.21.034-.043.103-.07.201-.07h1.322v-.235l-1.322-.06h-.025ZM7.546 3.12a.564.564 0 0 0-.369.134c-.103.09-.154.236-.154.438v2.004c0 .236.064.395.193.472.06.035.12.06.176.07.056.008.103.016.137.016h.09L8.9 6.19v-.232h-1.28a.565.565 0 0 1-.21-.034c-.06-.03-.094-.108-.094-.228v-.85l1.339-.03c.043 0 .073-.034.073-.077v-.163L7.31 4.542v-.846c0-.095.017-.163.056-.21.034-.043.103-.07.202-.07H8.89v-.235l-1.322-.06h-.022ZM11.35 5.967c.107-.163.163-.365.163-.601 0-.22-.052-.4-.15-.533a.62.62 0 0 0-.245-.21.564.564 0 0 0 .257-.223.881.881 0 0 0 .12-.46.89.89 0 0 0-.042-.291c-.103-.348-.365-.524-.782-.524H9.504v3.12h1.167c.322 0 .55-.094.679-.278Zm-.674-.017h-.872V4.76h.876c.167 0 .292.056.39.172a.631.631 0 0 1 .147.425c0 .4-.176.593-.541.593Zm.386-1.623a.538.538 0 0 1-.386.137h-.872V3.421h.872c.356 0 .528.163.528.502 0 .176-.048.314-.142.404ZM16.269 4.945a.687.687 0 0 0 .249-.086.586.586 0 0 0 .159-.15.83.83 0 0 0 .107-.266c.03-.112.043-.25.043-.4 0-.609-.249-.918-.747-.918h-1.283v3.12h.296V4.912c.051.004.159.013.39.026.25.017.404.021.46.025l.652 1.288h.327l-.653-1.305Zm.262-.919c0 .224-.03.387-.09.486-.056.09-.176.137-.352.137H15.1V3.425h.988a.48.48 0 0 1 .305.1.411.411 0 0 1 .103.188c.021.086.034.193.034.313ZM17.934 3.12a.564.564 0 0 0-.369.134c-.103.09-.154.236-.154.438v2.004c0 .236.064.395.193.472.06.035.12.06.176.07.056.008.103.016.137.016h.09l1.28-.064v-.232h-1.28a.565.565 0 0 1-.21-.034c-.06-.03-.094-.108-.094-.228v-.85l1.339-.03c.043 0 .073-.034.073-.077v-.163l-1.417-.034v-.846c0-.095.018-.163.056-.21.035-.043.103-.07.202-.07h1.322v-.235l-1.322-.06h-.021ZM10.332 9.246h-.558a1.07 1.07 0 0 1-.253-.025.292.292 0 0 1-.09-.043.311.311 0 0 1-.077-.095c-.018-.03-.043-.099-.043-.257V8.55c0-.198.043-.33.124-.386.095-.065.21-.095.386-.09.155 0 1.078.038 1.078.038v-.24l-.026-.005c-.116-.017-.283-.034-.515-.06a6.262 6.262 0 0 0-.52-.034c-.24 0-.433.051-.583.146-.163.116-.245.326-.245.627v.274c0 .163.022.297.069.404.099.21.33.313.695.313h.55c.146 0 .244.035.305.103.06.069.09.176.09.314v.283c0 .142-.043.245-.13.313a.374.374 0 0 1-.136.069.814.814 0 0 1-.15.034 8.293 8.293 0 0 1-.421.005 7.87 7.87 0 0 1-.756-.04l-.03-.003v.24l.022.004c.103.022.274.039.515.06.24.022.438.03.583.03.146 0 .288-.025.417-.072.253-.095.382-.314.382-.644V9.95a.895.895 0 0 0-.125-.485c-.094-.141-.283-.219-.558-.219ZM15.947 9.542a.586.586 0 0 0 .159-.15.83.83 0 0 0 .107-.266c.03-.112.043-.249.043-.4 0-.609-.249-.918-.747-.918h-1.283v3.121h.296V9.594c.051.004.159.013.39.026.25.017.404.021.46.026l.652 1.287h.327l-.661-1.3a.636.636 0 0 0 .257-.09Zm.009-.832c0 .223-.03.386-.09.485-.056.09-.176.137-.352.137h-.988V8.11h.988a.48.48 0 0 1 .304.098.412.412 0 0 1 .103.19c.022.085.035.193.035.313ZM18.613 9.542a.586.586 0 0 0 .159-.15.83.83 0 0 0 .107-.266c.03-.112.043-.249.043-.4 0-.609-.25-.918-.747-.918H16.89v3.121h.297V9.594c.051.004.158.013.39.026.25.017.404.021.46.026l.652 1.287h.326l-.66-1.3a.659.659 0 0 0 .257-.09Zm.008-.832c0 .223-.03.386-.09.485-.056.09-.176.137-.352.137h-.987V8.11h.987a.48.48 0 0 1 .305.098.411.411 0 0 1 .103.19c.021.085.034.193.034.313ZM21.944 7.808v.296h.867v2.825h.296V8.104h.816A.077.077 0 0 0 24 8.027v-.219h-2.056ZM12.75 7.808h-.374l-1.1 3.121h.348l.327-.927h1.219l.326.927h.352l-1.095-3.104-.004-.017Zm.317 1.902h-1.013l.506-1.438.507 1.438ZM12.904 6.246h.373l1.095-3.125h-.348l-.936 2.661-.936-2.661h-.347l1.09 3.103.009.022Z"/>
    <path d="M15.47 0h-.111c-.142 0-.27.09-.318.223l-.91 2.602h.348L15.471 0Z"/>
</svg>